<?xml version="1.0" encoding="UTF-8"?>
<svg width="430px" height="158px" viewBox="0 0 430 158" version="1.1" xmlns="http://www.w3.org/2000/svg" xmlns:xlink="http://www.w3.org/1999/xlink">
    <!-- Generator: Sketch 48.2 (47327) - http://www.bohemiancoding.com/sketch -->
    <title>Artboard</title>
    <desc>Created with Sketch.</desc>
    <defs>
        <path d="M19,8 L5,8 C3.3,8 2,9.3 2,11 L2,17 L6,17 L6,21 L18,21 L18,17 L22,17 L22,11 C22,9.3 20.7,8 19,8 L19,8 Z M16,19 L8,19 L8,14 L16,14 L16,19 L16,19 Z M19,12 C18.4,12 18,11.6 18,11 C18,10.4 18.4,10 19,10 C19.6,10 20,10.4 20,11 C20,11.6 19.6,12 19,12 L19,12 Z M18,3 L6,3 L6,7 L18,7 L18,3 L18,3 Z" id="path-1"></path>
        <path d="M18,35 C27.3888407,35 35,27.3888407 35,18 C35,8.61115925 27.3888407,1 18,1 C8.61115925,1 1,8.61115925 1,18 C1,27.3888407 8.61115925,35 18,35 Z M18,36 C8.0588745,36 0,27.9411255 0,18 C0,8.0588745 8.0588745,0 18,0 C27.9411255,0 36,8.0588745 36,18 C36,27.9411255 27.9411255,36 18,36 Z M21.6506122,15.1392653 L19.1542857,15.1392653 L19.1542857,13.5020408 C19.1542857,12.8871837 19.5617959,12.7438367 19.8488163,12.7438367 C20.1351837,12.7438367 21.610449,12.7438367 21.610449,12.7438367 L21.610449,10.0408163 L19.1843265,10.0313469 C16.491102,10.0313469 15.8782041,12.0473469 15.8782041,13.3374694 L15.8782041,15.1392653 L14.3206531,15.1392653 L14.3206531,17.9245714 L15.8782041,17.9245714 C15.8782041,21.499102 15.8782041,25.8060408 15.8782041,25.8060408 L19.1542857,25.8060408 C19.1542857,25.8060408 19.1542857,21.4566531 19.1542857,17.9245714 L21.364898,17.9245714 L21.6506122,15.1392653 Z" id="path-3"></path>
        <path d="M18,35 C27.3888407,35 35,27.3888407 35,18 C35,8.61115925 27.3888407,1 18,1 C8.61115925,1 1,8.61115925 1,18 C1,27.3888407 8.61115925,35 18,35 Z M18,36 C8.0588745,36 0,27.9411255 0,18 C0,8.0588745 8.0588745,0 18,0 C27.9411255,0 36,8.0588745 36,18 C36,27.9411255 27.9411255,36 18,36 Z M26.94784,13.6208 C26.36832,13.8784 25.74464,14.05216 25.09024,14.12992 C25.7584,13.72992 26.27072,13.09632 26.51232,12.34048 C25.88736,12.71136 25.19552,12.98048 24.45856,13.12576 C23.8688,12.49728 23.02816,12.10432 22.09792,12.10432 C20.312,12.10432 18.864,13.55232 18.864,15.33856 C18.864,15.59168 18.89248,15.8384 18.94784,16.07552 C16.25984,15.94048 13.87648,14.65312 12.28128,12.69632 C12.00288,13.17376 11.84352,13.72928 11.84352,14.32256 C11.84352,15.44448 12.4144,16.43456 13.28224,17.0144 C12.75232,16.99744 12.25344,16.85184 11.81728,16.6096 C11.81696,16.62304 11.81696,16.6368 11.81696,16.65056 C11.81696,18.21728 12.93184,19.52416 14.41152,19.82176 C14.14016,19.89536 13.8544,19.93504 13.55936,19.93504 C13.35072,19.93504 13.14816,19.91488 12.95072,19.8768 C13.36256,21.1616 14.5568,22.09696 15.97184,22.12288 C14.86496,22.9904 13.47072,23.50752 11.9552,23.50752 C11.6944,23.50752 11.4368,23.49216 11.18368,23.46208 C12.61536,24.38016 14.3152,24.9152 16.14144,24.9152 C22.09056,24.9152 25.34336,19.9872 25.34336,15.71328 C25.34336,15.57312 25.34048,15.43328 25.3344,15.2944 C25.96608,14.83936 26.51456,14.26944 26.94784,13.6208 Z" id="path-5"></path>
        <path d="M18,35 C27.3888407,35 35,27.3888407 35,18 C35,8.61115925 27.3888407,1 18,1 C8.61115925,1 1,8.61115925 1,18 C1,27.3888407 8.61115925,35 18,35 Z M18,36 C8.0588745,36 0,27.9411255 0,18 C0,8.0588745 8.0588745,0 18,0 C27.9411255,0 36,8.0588745 36,18 C36,27.9411255 27.9411255,36 18,36 Z M17.3469388,21.5469388 C17.3795918,21.677551 17.3795918,21.8081633 17.3795918,21.9387755 C17.3795918,22.6571429 17.1183673,23.3102041 16.5959184,23.8 L15.5510204,24.844898 C15.0612245,25.3346939 14.3755102,25.6285714 13.6897959,25.6285714 C12.2204082,25.6285714 11.044898,24.4530612 11.044898,22.9836735 C11.044898,22.2653061 11.3061224,21.6122449 11.8285714,21.122449 L12.8734694,20.077551 C13.3632653,19.5877551 14.0489796,19.2938776 14.7673469,19.2938776 C14.8979592,19.2938776 15.0285714,19.3265306 15.1591837,19.3265306 L15.9755102,18.5102041 C15.5836735,18.3795918 15.1918367,18.3142857 14.7673469,18.3142857 C13.7877551,18.3142857 12.8734694,18.7061224 12.1877551,19.3918367 L11.1428571,20.4367347 C10.4571429,21.122449 10.0653061,22.0367347 10.0653061,23.0163265 C10.0653061,25.0081633 11.6979592,26.6408163 13.6897959,26.6408163 C14.6693878,26.6408163 15.5836735,26.2489796 16.2693878,25.5632653 L17.3142857,24.5183673 C18,23.8326531 18.3918367,22.9183673 18.3918367,21.9387755 C18.3918367,21.5142857 18.3265306,21.122449 18.1959184,20.7306122 L17.3469388,21.5469388 M22.0489796,11 C21.0693878,11 20.155102,11.3918367 19.4693878,12.077551 L18.4244898,13.122449 C17.7387755,13.8081633 17.3469388,14.722449 17.3469388,15.7020408 C17.3469388,16.1265306 17.4122449,16.5183673 17.5428571,16.9102041 L18.3591837,16.0938776 C18.3265306,15.9632653 18.3265306,15.8326531 18.3265306,15.7020408 C18.3265306,14.9836735 18.5877551,14.3306122 19.1102041,13.8408163 L20.155102,12.7959184 C20.644898,12.3061224 21.3306122,12.0122449 22.0489796,12.0122449 C23.5183673,12.0122449 24.6938776,13.1877551 24.6938776,14.6571429 C24.6938776,15.3755102 24.4326531,16.0285714 23.9102041,16.5183673 L22.8653061,17.5632653 C22.3755102,18.0530612 21.6897959,18.3469388 21.0040816,18.3469388 C20.8734694,18.3469388 20.7428571,18.3142857 20.6122449,18.3142857 L19.7959184,19.0979592 C20.1877551,19.2285714 20.5795918,19.2938776 21.0040816,19.2938776 C21.9836735,19.2938776 22.8979592,18.9020408 23.5836735,18.2163265 L24.6285714,17.1714286 C25.3142857,16.4857143 25.7061224,15.5714286 25.7061224,14.5918367 C25.6734694,12.6326531 24.0408163,11 22.0489796,11 M15.2571429,21.9387755 C15.1265306,21.9387755 14.9959184,21.8734694 14.8979592,21.7755102 C14.7020408,21.5795918 14.7020408,21.2530612 14.8979592,21.0244898 L20.122449,15.8 C20.3183673,15.6040816 20.644898,15.6040816 20.8734694,15.8 C21.0693878,15.9959184 21.0693878,16.322449 20.8734694,16.5510204 L15.6489796,21.7755102 C15.5183673,21.9061224 15.3877551,21.9387755 15.2571429,21.9387755" id="path-7"></path>
        <path d="M19,13 L19,19 C19,20.7 17.7,22 16,22 L5,22 C3.3,22 2,20.7 2,19 L2,8 C2,6.3 3.3,5 5,5 L11,5 C11.6,5 12,5.4 12,6 C12,6.6 11.6,7 11,7 L5,7 C4.4,7 4,7.4 4,8 L4,19 C4,19.6 4.4,20 5,20 L16,20 C16.6,20 17,19.6 17,19 L17,13 C17,12.4 17.4,12 18,12 C18.6,12 19,12.4 19,13 Z M21.9,2.6 C21.8,2.4 21.6,2.2 21.4,2.1 C21.3,2 21.1,2 21,2 L15,2 C14.4,2 14,2.4 14,3 C14,3.6 14.4,4 15,4 L18.6,4 L9.3,13.3 C8.9,13.7 8.9,14.3 9.3,14.7 C9.5,14.9 9.7,15 10,15 C10.3,15 10.5,14.9 10.7,14.7 L20,5.4 L20,9 C20,9.6 20.4,10 21,10 C21.6,10 22,9.6 22,9 L22,3 C22,2.9 22,2.7 21.9,2.6 Z" id="path-9"></path>
    </defs>
    <g id="Eprofile" stroke="none" stroke-width="1" fill="none" fill-rule="evenodd">
        <g id="Artboard">
            <g id="icons/print" opacity="0.699999988">
                <g>
                    <mask id="mask-2" fill="white">
                        <use xlink:href="#path-1"></use>
                    </mask>
                    <g id="mask"></g>
                    <g id="Colors/Lighter" mask="url(#mask-2)" fill="#F0F8FF">
                        <g transform="translate(2.000000, 3.000000)" id="color">
                            <rect x="0" y="0" width="20" height="18"></rect>
                        </g>
                    </g>
                </g>
            </g>
            <g id="social-media" opacity="0.699999988" transform="translate(86.000000, 1.000000)">
                <g id="Icons/Social/facebook">
                    <g id="ic_fb">
                        <mask id="mask-4" fill="white">
                            <use xlink:href="#path-3"></use>
                        </mask>
                        <use id="mask" fill="#F0F8FF" fill-rule="nonzero" xlink:href="#path-3"></use>
                        <g id="Colors/Lighter" mask="url(#mask-4)" fill="#F0F8FF">
                            <rect id="color" x="0" y="0" width="36" height="36"></rect>
                        </g>
                    </g>
                </g>
                <g id="Icons/Social/twitter" transform="translate(0.000000, 50.000000)">
                    <g id="ic_twitter">
                        <mask id="mask-6" fill="white">
                            <use xlink:href="#path-5"></use>
                        </mask>
                        <use id="mask" fill="#F0F8FF" fill-rule="nonzero" xlink:href="#path-5"></use>
                        <g id="Colors/Lighter" mask="url(#mask-6)" fill="#F0F8FF">
                            <rect id="color" x="0" y="0" width="36" height="36"></rect>
                        </g>
                    </g>
                </g>
                <g id="Icons/Social/copy-link" transform="translate(0.000000, 100.000000)">
                    <g id="ic_link">
                        <mask id="mask-8" fill="white">
                            <use xlink:href="#path-7"></use>
                        </mask>
                        <g id="mask" fill-rule="nonzero"></g>
                        <g id="Colors/Lighter" mask="url(#mask-8)" fill="#F0F8FF">
                            <rect id="color" x="0" y="0" width="36" height="36"></rect>
                        </g>
                    </g>
                </g>
            </g>
            <g id="icon-/-external-link" opacity="0.400000006" transform="translate(0.000000, 38.000000)">
                <mask id="mask-10" fill="white">
                    <use xlink:href="#path-9"></use>
                </mask>
                <use id="Mask" fill="#000000" fill-rule="nonzero" xlink:href="#path-9"></use>
                <g id="color-/-white" mask="url(#mask-10)" fill="#FFFFFF" fill-rule="evenodd">
                    <rect id="Shape" x="0" y="0" width="24" height="24"></rect>
                </g>
            </g>
        </g>
    </g>
</svg>