<?xml version="1.0" encoding="UTF-8"?>
<svg width="168px" height="168px" viewBox="0 0 168 168" version="1.1" xmlns="http://www.w3.org/2000/svg" xmlns:xlink="http://www.w3.org/1999/xlink">
    <!-- Generator: Sketch 48.2 (47327) - http://www.bohemiancoding.com/sketch -->
    <title>Group</title>
    <desc>Created with Sketch.</desc>
    <defs>
        <path d="M37,74 C16.5654643,74 0,57.4345357 0,37 C0,16.5654643 16.5654643,0 37,0 C57.4345357,0 74,16.5654643 74,37 C74,57.4345357 57.4345357,74 37,74 Z M37,72.0526316 C56.3590339,72.0526316 72.0526316,56.3590339 72.0526316,37 C72.0526316,17.6409661 56.3590339,1.94736842 37,1.94736842 C17.6409661,1.94736842 1.94736842,17.6409661 1.94736842,37 C1.94736842,56.3590339 17.6409661,72.0526316 37,72.0526316 Z M25.3157895,22.3947368 L48.6842105,22.3947368 C50.8352143,22.3947368 52.5789474,24.1384699 52.5789474,26.2894737 L52.5789474,49.6578947 C52.5789474,51.8088985 50.8352143,53.5526316 48.6842105,53.5526316 L25.3157895,53.5526316 C23.1647857,53.5526316 21.4210526,51.8088985 21.4210526,49.6578947 L21.4210526,26.2894737 C21.4210526,24.1384699 23.1647857,22.3947368 25.3157895,22.3947368 Z M25.3157895,24.3421053 C24.2402876,24.3421053 23.3684211,25.2139718 23.3684211,26.2894737 L23.3684211,49.6578947 C23.3684211,50.7333966 24.2402876,51.6052632 25.3157895,51.6052632 L48.6842105,51.6052632 C49.7597124,51.6052632 50.6315789,50.7333966 50.6315789,49.6578947 L50.6315789,26.2894737 C50.6315789,25.2139718 49.7597124,24.3421053 48.6842105,24.3421053 L25.3157895,24.3421053 Z M30.1842105,45.7631579 C29.6475726,45.7631579 29.2105263,45.3272246 29.2105263,44.7894737 C29.2105263,44.2517227 29.6475726,43.8157895 30.1842105,43.8157895 L43.8157895,43.8157895 C44.3524274,43.8157895 44.7894737,44.2517227 44.7894737,44.7894737 C44.7894737,45.3272246 44.3524274,45.7631579 43.8157895,45.7631579 L30.1842105,45.7631579 Z M41.8684211,29.2105263 C42.5777459,29.1160107 43.1731403,29.1160107 43.8157895,29.2105263 C43.9075965,29.8721356 43.9075965,30.4850959 43.8157895,31.1578947 L36.0263158,38.9473684 C35.5960248,39.041884 35.0006304,39.041884 35.0526316,38.9473684 L30.1842105,34.0789474 C30.0924035,33.9888496 30.0924035,33.3758893 30.1842105,33.1052632 C30.8268597,32.6197645 31.4222541,32.6197645 32.1315789,33.1052632 L35.0526316,37 L41.8684211,29.2105263 Z" id="path-1"></path>
        <path d="M37,72 C56.3299662,72 72,56.3299662 72,37 C72,17.6700338 56.3299662,2 37,2 C17.6700338,2 2,17.6700338 2,37 C2,56.3299662 17.6700338,72 37,72 Z M37,74 C16.5654643,74 0,57.4345357 0,37 C0,16.5654643 16.5654643,0 37,0 C57.4345357,0 74,16.5654643 74,37 C74,57.4345357 57.4345357,74 37,74 Z M24,27 L30,27 C30.5522847,27 31,27.4477153 31,28 L31,28 C31,28.5522847 30.5522847,29 30,29 L24,29 C23.4477153,29 23,28.5522847 23,28 L23,28 C23,27.4477153 23.4477153,27 24,27 Z M24,35 L42,35 C42.5522847,35 43,35.4477153 43,36 L43,36 C43,36.5522847 42.5522847,37 42,37 L24,37 C23.4477153,37 23,36.5522847 23,36 L23,36 C23,35.4477153 23.4477153,35 24,35 Z M24,43 L30,43 C30.5522847,43 31,43.4477153 31,44 L31,44 C31,44.5522847 30.5522847,45 30,45 L24,45 C23.4477153,45 23,44.5522847 23,44 L23,44 C23,43.4477153 23.4477153,43 24,43 Z M36,27 L54,27 C54.5522847,27 55,27.4477153 55,28 L55,28 C55,28.5522847 54.5522847,29 54,29 L36,29 C35.4477153,29 35,28.5522847 35,28 L35,28 C35,27.4477153 35.4477153,27 36,27 Z M48,35 L54,35 C54.5522847,35 55,35.4477153 55,36 L55,36 C55,36.5522847 54.5522847,37 54,37 L48,37 C47.4477153,37 47,36.5522847 47,36 L47,36 C47,35.4477153 47.4477153,35 48,35 Z M36,43 L54,43 C54.5522847,43 55,43.4477153 55,44 L55,44 C55,44.5522847 54.5522847,45 54,45 L36,45 C35.4477153,45 35,44.5522847 35,44 L35,44 C35,43.4477153 35.4477153,43 36,43 Z" id="path-3"></path>
        <path d="M37,72 C56.3299662,72 72,56.3299662 72,37 C72,17.6700338 56.3299662,2 37,2 C17.6700338,2 2,17.6700338 2,37 C2,56.3299662 17.6700338,72 37,72 Z M37,74 C16.5654643,74 0,57.4345357 0,37 C0,16.5654643 16.5654643,0 37,0 C57.4345357,0 74,16.5654643 74,37 C74,57.4345357 57.4345357,74 37,74 Z M42,29.3777442 L34.6552729,22 L25,22 C23.3431458,22 22,23.3431458 22,25 L22,49 C22,50.6568542 23.3431458,52 25,52 L39,52 C40.6568542,52 42,50.6568542 42,49 L42,29.3777442 Z M25,21 L35.0708008,21 L43,28.9648438 L43,49 C43,51.209139 41.209139,53 39,53 L25,53 C22.790861,53 21,51.209139 21,49 L21,25 C21,22.790861 22.790861,21 25,21 Z M35,21 L43,29 L37,29 C35.8954305,29 35,28.1045695 35,27 L35,21 Z M27,36 L36,36 C36.5522847,36 37,36.4477153 37,37 L37,37 C37,37.5522847 36.5522847,38 36,38 L27,38 C26.4477153,38 26,37.5522847 26,37 L26,37 C26,36.4477153 26.4477153,36 27,36 Z M27,40 L36,40 C36.5522847,40 37,40.4477153 37,41 L37,41 C37,41.5522847 36.5522847,42 36,42 L27,42 C26.4477153,42 26,41.5522847 26,41 L26,41 C26,40.4477153 26.4477153,40 27,40 Z M27,44 L36,44 C36.5522847,44 37,44.4477153 37,45 L37,45 C37,45.5522847 36.5522847,46 36,46 L27,46 C26.4477153,46 26,45.5522847 26,45 L26,45 C26,44.4477153 26.4477153,44 27,44 Z M48,31 L48,47 L52,47 L52,31 L48,31 Z M47,30 L53,30 L53,48 L47,48 L47,30 Z M48,30 L52,30 L52,29 C52,27.8954305 51.1045695,27 50,27 C48.8954305,27 48,27.8954305 48,29 L48,30 Z M50,26 C51.6568542,26 53,27.3431458 53,29 L53,31 L47,31 L47,29 C47,27.3431458 48.3431458,26 50,26 Z M47,47 L53,47 L49.9975586,53 L47,47 Z" id="path-5"></path>
        <path d="M37,72 C56.3299662,72 72,56.3299662 72,37 C72,17.6700338 56.3299662,2 37,2 C17.6700338,2 2,17.6700338 2,37 C2,56.3299662 17.6700338,72 37,72 Z M37,74 C16.5654643,74 0,57.4345357 0,37 C0,16.5654643 16.5654643,0 37,0 C57.4345357,0 74,16.5654643 74,37 C74,57.4345357 57.4345357,74 37,74 Z M40.2984379,46 L52,46 L52,26 L24,26 L24,46 L33,46 L33,51.8387503 L40.2984379,46 Z M41,48 L31,56 L31,48 L22,48 L22,24 L54,24 L54,48 L41,48 Z M37.854,42 L37.854,34.664 L39.73,34.664 L39.73,42 L37.854,42 Z M37.854,33.642 L37.854,31.78 L39.73,31.78 L39.73,33.642 L37.854,33.642 Z" id="path-7"></path>
    </defs>
    <g id="Artboard" stroke="none" stroke-width="1" fill="none" fill-rule="evenodd">
        <g id="Group">
            <g id="icons/d&amp;i/decisions">
                <g id="ic_decisions">
                    <mask id="mask-2" fill="white">
                        <use xlink:href="#path-1"></use>
                    </mask>
                    <use id="mask" fill="#FFFFFF" fill-rule="nonzero" xlink:href="#path-1"></use>
                    <g id="Colors/Lighter" mask="url(#mask-2)" fill="#F0F8FF">
                        <rect id="color" x="0" y="0" width="74" height="74"></rect>
                    </g>
                </g>
            </g>
            <g id="icons/d&amp;i/policies" transform="translate(94.000000, 0.000000)">
                <g id="ic_decisions">
                    <mask id="mask-4" fill="white">
                        <use xlink:href="#path-3"></use>
                    </mask>
                    <use id="mask" fill="#FFFFFF" fill-rule="nonzero" xlink:href="#path-3"></use>
                    <g id="Colors/Lighter" mask="url(#mask-4)" fill="#F0F8FF">
                        <rect id="color" x="0" y="0" width="74" height="74"></rect>
                    </g>
                </g>
            </g>
            <g id="icons/d&amp;i/projects" transform="translate(0.000000, 94.000000)">
                <g id="ic_decisions">
                    <mask id="mask-6" fill="white">
                        <use xlink:href="#path-5"></use>
                    </mask>
                    <g id="mask" fill-rule="nonzero"></g>
                    <g id="Colors/Lighter" mask="url(#mask-6)" fill="#F0F8FF">
                        <rect id="color" x="0" y="0" width="74" height="74"></rect>
                    </g>
                </g>
            </g>
            <g id="icons/d&amp;i/information" transform="translate(94.000000, 94.000000)">
                <g id="ic_decisions">
                    <mask id="mask-8" fill="white">
                        <use xlink:href="#path-7"></use>
                    </mask>
                    <use id="mask" fill="#FFFFFF" fill-rule="nonzero" xlink:href="#path-7"></use>
                    <g id="Colors/Lighter" mask="url(#mask-8)" fill="#F0F8FF">
                        <rect id="color" x="0" y="0" width="74" height="74"></rect>
                    </g>
                </g>
            </g>
        </g>
    </g>
</svg>