<?xml version="1.0" encoding="UTF-8"?>
<svg width="28px" height="50px" viewBox="0 0 28 50" version="1.1" xmlns="http://www.w3.org/2000/svg" xmlns:xlink="http://www.w3.org/1999/xlink">
    <!-- Generator: Sketch 48.2 (47327) - http://www.bohemiancoding.com/sketch -->
    <title>ic_view-more</title>
    <desc>Created with Sketch.</desc>
    <defs>
        <path d="M22,10 L16,15 L16,5 L22,10 Z M18,20 C12.4771525,20 8,15.5228475 8,10 C8,4.4771525 12.4771525,0 18,0 C23.5228475,0 28,4.4771525 28,10 C28,15.5228475 23.5228475,20 18,20 Z M18,19 C22.9705627,19 27,14.9705627 27,10 C27,5.02943725 22.9705627,1 18,1 C13.0294373,1 9,5.02943725 9,10 C9,14.9705627 13.0294373,19 18,19 Z M0,9 L16,9 L16,11 L0,11 L0,9 Z" id="path-1"></path>
        <path d="M22,10 L16,15 L16,5 L22,10 Z M18,20 C12.4771525,20 8,15.5228475 8,10 C8,4.4771525 12.4771525,0 18,0 C23.5228475,0 28,4.4771525 28,10 C28,15.5228475 23.5228475,20 18,20 Z M18,19 C22.9705627,19 27,14.9705627 27,10 C27,5.02943725 22.9705627,1 18,1 C13.0294373,1 9,5.02943725 9,10 C9,14.9705627 13.0294373,19 18,19 Z M0,9 L16,9 L16,11 L0,11 L0,9 Z" id="path-3"></path>
    </defs>
    <g id="Page-1" stroke="none" stroke-width="1" fill="none" fill-rule="evenodd">
        <g id="ic_view-more">
            <g>
                <g id="mask" fill="#3195E7" fill-rule="nonzero">
                    <path d="M22,10 L16,15 L16,5 L22,10 Z M18,20 C12.4771525,20 8,15.5228475 8,10 C8,4.4771525 12.4771525,0 18,0 C23.5228475,0 28,4.4771525 28,10 C28,15.5228475 23.5228475,20 18,20 Z M18,19 C22.9705627,19 27,14.9705627 27,10 C27,5.02943725 22.9705627,1 18,1 C13.0294373,1 9,5.02943725 9,10 C9,14.9705627 13.0294373,19 18,19 Z M0,9 L16,9 L16,11 L0,11 L0,9 Z" id="path-1"></path>
                </g>
                <g id="Colors/Light-Clipped">
                    <mask id="mask-2" fill="white">
                        <use xlink:href="#path-1"></use>
                    </mask>
                    <g id="path-1"></g>
                    <g id="Colors/Light" mask="url(#mask-2)" fill="#3195E7" fill-rule="nonzero">
                        <rect id="color" x="0" y="0" width="28" height="20"></rect>
                    </g>
                </g>
            </g>
            <g id="Icons/direction" transform="translate(0.000000, 30.000000)">
                <g id="ic_direction">
                    <mask id="mask-4" fill="white">
                        <use xlink:href="#path-3"></use>
                    </mask>
                    <use id="mask" fill="#3195E7" xlink:href="#path-3"></use>
                    <g id="Colors/Primary" mask="url(#mask-4)" fill="#014983">
                        <rect id="color" x="0" y="0" width="28" height="20"></rect>
                    </g>
                </g>
            </g>
        </g>
    </g>
</svg>