<?xml version="1.0" encoding="UTF-8"?>
<svg width="75px" height="21px" viewBox="0 0 75 21" version="1.1" xmlns="http://www.w3.org/2000/svg" xmlns:xlink="http://www.w3.org/1999/xlink">
    <!-- Generator: Sketch 48.2 (47327) - http://www.bohemiancoding.com/sketch -->
    <title>Logo/Susasan</title>
    <desc>Created with Sketch.</desc>
    <defs>
        <path d="M12.3115835,5.22664708 C12.5909275,4.8774671 12.8074159,4.52130885 12.9610551,4.15816166 C13.0867599,3.83691608 13.1635783,3.47726608 13.1915127,3.0792009 C13.2194471,2.68113571 13.1077112,2.26561776 12.8563016,1.83263458 C12.5769576,1.37171699 12.2801591,1.05745972 11.9658971,0.889853323 C11.6516351,0.722246929 11.3513448,0.641936736 11.0650172,0.648920336 C10.7786896,0.655903936 10.5203003,0.722247138 10.2898415,0.847951934 C10.0593827,0.973656729 9.8952706,1.09935964 9.7975002,1.22506443 C9.64386101,1.42060523 9.5181581,1.63709357 9.4203877,1.87453596 C9.32261731,2.11197836 9.28420808,2.38084291 9.30515888,2.6811377 C9.32610968,2.98143249 9.42038686,3.320132 9.58799326,3.69724639 C9.75559965,4.07436077 10.027956,4.50035397 10.4050703,4.97523875 C10.6564799,5.29648434 10.974229,5.67010132 11.3583269,6.09610091 C11.7424249,6.52210049 12.1439759,6.98999466 12.5629919,7.49979744 C12.9820079,8.00960022 13.3905423,8.55780458 13.7886075,9.14442696 C14.1866727,9.73104933 14.5323557,10.3490886 14.8256669,10.9985634 C15.1189781,11.6480382 15.3319747,12.3219455 15.4646631,13.0203054 C15.5973515,13.7186654 15.6008432,14.4309819 15.4751384,15.1572763 C15.3494336,15.911505 15.0386681,16.6133463 14.5428325,17.2628211 C14.0469969,17.9122959 13.4289576,18.4814507 12.688696,18.9703027 C11.9484345,19.4591547 11.1208903,19.8607056 10.2060387,20.1749676 C9.29118718,20.4892296 8.3519071,20.6882592 7.38817034,20.7720624 C6.45236797,20.8558656 5.51308789,20.7755554 4.57030193,20.5311294 C3.62751596,20.2867034 2.79298831,19.9061029 2.06669393,19.3893166 C1.34039956,18.8725302 0.785211707,18.2300486 0.401113721,17.4618527 C0.0170157342,16.6936567 -0.0912284382,15.8277033 0.0763779558,14.8639666 C0.257951549,13.9002298 0.593159309,13.0412599 1.08201129,12.2870311 C1.57086327,11.5328024 2.18890258,10.9252383 2.93614775,10.4643207 C3.68339293,10.0034031 4.53887107,9.70660459 5.50260783,9.57391619 C6.4663446,9.4412278 7.51386885,9.51455449 8.64521201,9.79389848 C8.49157281,10.1291113 8.28905146,10.450352 8.03764187,10.7576304 C7.82813387,11.0230072 7.55228582,11.2918718 7.21008943,11.5642322 C6.86789304,11.8365926 6.45935859,12.0495892 5.9844738,12.2032284 C5.50958902,12.3708347 5.02772787,12.6047818 4.53887588,12.9050766 C4.0500239,13.2053714 3.62752245,13.5754966 3.27135887,14.0154634 C2.91519528,14.4554302 2.66728121,14.9617336 2.52760921,15.5343888 C2.38793722,16.107044 2.42285469,16.7495255 2.63236268,17.4618527 C2.84187068,18.1741798 3.18057018,18.7223842 3.64847137,19.1064822 C4.11637255,19.4905802 4.60870895,19.7664282 5.12549533,19.9340346 C5.64228171,20.101641 6.13810986,20.1889347 6.61299464,20.1959183 C7.08787942,20.2029019 7.45102116,20.1854432 7.70243075,20.1435416 C8.24715153,20.0597384 8.83376511,19.8467418 9.46228909,19.5045454 C10.0908131,19.162349 10.6494927,18.7293723 11.1383447,18.2056023 C11.6271966,17.6818323 11.9938301,17.0882353 12.2382561,16.4247933 C12.4826821,15.7613513 12.4931573,15.0664936 12.2696822,14.3401992 C11.9344694,13.2228232 11.4770504,12.1962495 10.8974117,11.2604471 C10.3177729,10.3246447 9.73465105,9.47615009 9.14802867,8.71493772 C8.56140629,7.95372535 8.02716893,7.26585109 7.54530054,6.65129431 C7.06343216,6.03673753 6.75965013,5.49900842 6.63394533,5.03809083 C6.50824054,4.59114045 6.45935607,4.14070502 6.48729047,3.68677104 C6.51522487,3.23283705 6.65489477,2.79636862 6.90630436,2.37735263 C7.15771395,1.95833665 7.54180618,1.57075267 8.05859256,1.21458909 C8.57537894,0.8584255 9.25976145,0.547659973 10.1117606,0.282283182 C10.8659894,0.0588079904 11.6027481,-0.0319774446 12.3220589,0.00992415393 C13.0413697,0.0518257524 13.6803595,0.191495652 14.2390474,0.428938044 C14.7977354,0.666380435 15.2446791,0.98063771 15.5798919,1.3717193 C15.9151047,1.76280088 16.0757251,2.19577757 16.0617579,2.67066236 C16.0338235,3.59249752 15.6776652,4.27688003 14.9932724,4.72383042 C14.3088797,5.1707808 13.4149923,5.33838468 12.3115835,5.22664708 Z M18.0939752,8.24354709 C18.149844,8.0200719 18.2825304,7.92230297 18.4920384,7.95023737 C18.7015464,7.97817177 18.9320017,8.0759407 19.1834113,8.24354709 C19.4348209,8.41115349 19.6862267,8.62065834 19.9376363,8.87206793 C20.1890459,9.12347752 20.3845838,9.36091635 20.5242558,9.58439154 C20.6639278,9.80786673 20.6953535,10.108157 20.6185339,10.4852714 C20.5417143,10.8623858 20.4125197,11.260445 20.2309461,11.679461 C20.0493725,12.098477 19.8573264,12.5000279 19.654802,12.8841259 C19.4522776,13.2682239 19.3021324,13.5720059 19.204362,13.7954811 C19.1065916,14.0189563 18.977397,14.2913126 18.8167742,14.6125582 C18.6561514,14.9338038 18.5129897,15.2585363 18.3872849,15.5867655 C18.2615802,15.9149947 18.1707947,16.2222685 18.1149259,16.5085961 C18.0590571,16.7949237 18.0939746,17.0149038 18.2196794,17.1685429 C18.3453842,17.3221821 18.4850541,17.3920171 18.6386933,17.3780499 C18.7923325,17.3640827 18.9494611,17.3117065 19.1100839,17.2209197 C19.2707067,17.1301329 19.4173601,17.018397 19.5500485,16.8857086 L19.8747843,16.5609728 C20.2379314,16.1978256 20.6080567,15.7438984 20.9851711,15.1991777 C21.3622855,14.6544569 21.7289189,14.0818103 22.0850825,13.4812207 C22.4412461,12.8806311 22.7799456,12.2800506 23.1011912,11.679461 C23.4224368,11.0788714 23.7052683,10.5306671 23.9496943,10.0348315 C24.1941203,9.53899589 24.3896582,9.13046143 24.5363138,8.80921584 C24.6829694,8.48797025 24.7632796,8.29941589 24.7772468,8.24354709 C24.8051812,8.1318095 24.8750161,8.06197455 24.9867537,8.03404015 C25.0426225,8.03404015 25.091507,8.04102364 25.1334086,8.05499084 C25.5384574,8.15276124 25.8527146,8.30639813 26.0761898,8.51590612 C26.299665,8.72541411 26.4567937,8.97332819 26.5475805,9.25965577 C26.6383673,9.54598336 26.6767765,9.86373239 26.6628093,10.2129124 C26.6488421,10.5620924 26.5999576,10.9112671 26.5161544,11.2604471 C26.4463184,11.5397911 26.2926815,11.9378503 26.0552391,12.4546367 C25.8177967,12.9714231 25.5594074,13.5196274 25.2800634,14.0992662 C25.0007194,14.678905 24.7388384,15.2480598 24.4944124,15.8067478 C24.2499864,16.3654358 24.0998413,16.83333 24.0439725,17.2104443 C24.0160381,17.3780507 24.0265133,17.4932784 24.0753985,17.5561308 C24.1242837,17.6189832 24.1906269,17.6573924 24.2744301,17.6713596 C24.3582333,17.6853268 24.4385435,17.6783433 24.5153631,17.6504089 C24.5921827,17.6224745 24.6515424,17.5945405 24.693444,17.5666061 C25.2241976,17.2313934 25.7060587,16.8298424 26.1390419,16.3619412 C26.5720251,15.89404 26.9456421,15.4401129 27.2599041,15.0001461 C27.5741661,14.5601793 27.8220801,14.1760871 28.0036537,13.8478579 C28.1852273,13.5196287 28.2899797,13.3345661 28.3179141,13.2926645 C28.4156845,13.1250581 28.5483709,13.0412561 28.7159773,13.0412561 C28.7718461,13.0412561 28.8137471,13.0971241 28.8416815,13.2088617 L28.8416815,13.3764672 C28.7159767,13.6837456 28.5134554,14.0678379 28.2341114,14.5287554 C27.9547674,14.989673 27.6300349,15.4645507 27.2599041,15.9534027 C26.8897733,16.4422546 26.5021893,16.9136406 26.0971405,17.3675745 C25.6920917,17.8215085 25.3079995,18.202109 24.9448523,18.5093874 C24.5677379,18.8166658 24.2115797,18.9877614 23.8763669,19.0226794 C23.5411541,19.0575974 23.2373721,19.0156964 22.9650117,18.8969752 C22.6926513,18.778254 22.462196,18.6141419 22.2736388,18.4046339 C22.0850816,18.1951259 21.9489034,17.9995881 21.8651002,17.8180145 C21.7673298,17.6224737 21.7289206,17.3431339 21.7498714,16.9799867 C21.7708222,16.6168395 21.8092314,16.2467143 21.8651002,15.8695999 C21.920969,15.4366167 22.004771,14.9687225 22.1165086,14.4659034 C21.9908038,14.7173129 21.8301834,14.9966527 21.6346426,15.3039311 C21.4670362,15.5693079 21.2575314,15.8905487 21.0061218,16.2676631 C20.7547122,16.6447775 20.4474384,17.0568037 20.0842912,17.5037541 C19.721144,17.9646716 19.3580023,18.2963877 18.9948551,18.498912 C18.6317079,18.7014364 18.3104671,18.8376146 18.0311231,18.9074506 C17.6819432,18.9772866 17.3607024,18.9912536 17.0673912,18.949352 C16.4807688,18.8655488 16.0757261,18.62811 15.8522509,18.2370284 C15.6287757,17.8459468 15.5205315,17.3745609 15.5275151,16.8228565 C15.5344987,16.2711521 15.6252842,15.6740633 15.7998742,15.0315721 C15.9744642,14.3890809 16.1804773,13.7745334 16.4179197,13.187911 C16.6553621,12.6012886 16.8893091,12.0810182 17.1197679,11.6270843 C17.3502267,11.1731503 17.5143389,10.8484178 17.6121093,10.652877 C17.7657484,10.373533 17.8739926,10.0941932 17.936845,9.81484918 C17.9996974,9.53550519 18.0450901,9.27711587 18.0730245,9.03967348 C18.1009589,8.77429669 18.1079424,8.50892388 18.0939752,8.24354709 Z M29.5540051,15.4924874 C29.4143331,15.324881 29.2606962,15.1607689 29.0930898,15.0001461 C28.9254834,14.8395233 28.7648631,14.6649359 28.6112239,14.4763787 C28.4575847,14.2878215 28.3214065,14.0748249 28.2026853,13.8373825 C28.0839641,13.5999401 28.0036539,13.3206003 27.9617523,12.9993547 C27.8919163,12.5663716 27.8954081,12.1368866 27.9722277,11.710887 C28.0490473,11.2848874 28.1922089,10.8833365 28.4017169,10.5062221 C28.6112249,10.1291077 28.8975482,9.7904082 29.2606954,9.49011341 C29.6238426,9.18981863 30.0568193,8.95587154 30.5596385,8.78826515 C30.7551792,8.71842915 31.0205521,8.66605294 31.3557648,8.63113494 C31.6909776,8.59621694 32.0331689,8.60320044 32.3823489,8.65208563 C32.7315289,8.70097083 33.0422944,8.80921501 33.3146548,8.9768214 C33.5870152,9.14442779 33.7581108,9.40281711 33.8279468,9.7519971 C33.8279468,9.7659643 33.8209633,9.80437352 33.8069961,9.86722592 C33.7930289,9.93007831 33.7162105,9.96150404 33.5765385,9.96150404 C33.4787681,9.96150404 33.3425899,9.94753705 33.1679999,9.91960265 C32.9934099,9.89166825 32.8013638,9.88468476 32.5918558,9.89865196 C32.3823478,9.91261916 32.1658595,9.96150362 31.9423843,10.0453068 C31.7189091,10.12911 31.5024208,10.2757634 31.2929128,10.4852714 C31.0834048,10.6947794 30.9053256,10.9811027 30.75867,11.3442499 C30.6120145,11.7073971 30.5736052,12.1054563 30.6434412,12.5384395 C30.7132772,12.9295211 30.8389801,13.3066298 31.0205537,13.669777 C31.2021273,14.0329242 31.4116322,14.3611484 31.6490746,14.6544596 C32.0541234,14.4309844 32.3718724,14.2389383 32.6023312,14.0783155 C32.83279,13.9176927 33.0248361,13.7710393 33.1784753,13.6383509 C33.3321145,13.5056625 33.4787679,13.3729761 33.6184398,13.2402877 C33.7581118,13.1075993 33.9396827,12.9504707 34.1631579,12.7688971 C34.1910923,12.7269955 34.2609273,12.6850945 34.3726648,12.6431929 C34.4844024,12.6012913 34.5891549,12.6012913 34.6869253,12.6431929 C34.7567613,12.6711273 34.7846952,12.7269953 34.770728,12.8107985 C34.7567608,12.8946017 34.7078764,12.9853871 34.6240732,13.0831575 C34.3726636,13.3485343 34.0968155,13.5929566 33.7965208,13.8164318 C33.496226,14.039907 33.2099027,14.2354449 32.9375423,14.4030513 C32.6651819,14.5706577 32.4312348,14.7068358 32.235694,14.8115898 C32.0401532,14.9163438 31.9214338,14.9757035 31.8795322,14.9896707 C32.0192042,15.1572771 32.1449071,15.366782 32.2566447,15.6181916 C32.3683823,15.8696011 32.4452007,16.1559244 32.4871023,16.47717 C32.5290039,16.7984156 32.5115452,17.1440986 32.4347256,17.5142294 C32.357906,17.8843602 32.2007774,18.2370267 31.963335,18.5722395 C31.8096958,18.7817475 31.6176497,18.9947441 31.3871909,19.2112357 C31.1567321,19.4277273 30.894851,19.6127899 30.6015398,19.7664291 C30.3082287,19.9200683 29.9834961,20.0283124 29.6273325,20.0911648 C29.271169,20.1540172 28.8905685,20.1505255 28.4855197,20.0806895 C28.1084053,20.0108535 27.8150985,19.8676918 27.6055905,19.6512002 C27.3960825,19.4347087 27.2564126,19.1867946 27.1865766,18.9074506 C27.1167406,18.6281066 27.1132489,18.3417833 27.1761013,18.0484721 C27.2389537,17.7551609 27.3541814,17.4897881 27.5217877,17.2523457 C27.6754269,17.0568049 27.895407,16.7984156 28.1817346,16.47717 C28.4680622,16.1559244 28.9254811,15.8277002 29.5540051,15.4924874 Z M29.9101669,15.8486492 C29.7565277,15.9603868 29.6168578,16.0616475 29.491153,16.1524343 C29.3654482,16.2432211 29.1978444,16.4073332 28.9883364,16.6447756 C28.8765988,16.7844476 28.7578794,16.9764937 28.6321746,17.2209197 C28.5064698,17.4653457 28.4331431,17.7167515 28.4121923,17.9751447 C28.3912415,18.2335379 28.4506012,18.4709767 28.5902732,18.6874683 C28.7299452,18.9039599 29.0023015,19.0471215 29.4073503,19.1169575 C29.6308254,19.1588591 29.8473138,19.1379087 30.0568218,19.0541055 C30.2663298,18.9703023 30.4479006,18.8480911 30.6015398,18.6874683 C30.755179,18.5268455 30.8634232,18.3313076 30.9262756,18.1008489 C30.989128,17.8703901 30.9856363,17.622476 30.9158003,17.3570992 C30.8599315,17.1615584 30.7447038,16.9311031 30.5701138,16.6657263 C30.3955238,16.4003495 30.1755437,16.1279932 29.9101669,15.8486492 Z M42.7529426,17.5666061 C43.0043522,17.2872622 43.269725,16.9450709 43.549069,16.5400221 C43.828413,16.1349733 44.0937858,15.7299306 44.3451954,15.3248818 C44.596605,14.919833 44.8235686,14.5497078 45.026093,14.214495 C45.2286174,13.8792822 45.3787625,13.6418434 45.4765329,13.5021714 C45.5184345,13.4323354 45.5743025,13.3939262 45.6441385,13.3869426 C45.7139745,13.379959 45.7733342,13.3974177 45.8222194,13.4393193 C45.8711046,13.4812209 45.9025303,13.5475641 45.9164975,13.6383509 C45.9304647,13.7291377 45.9095142,13.8234149 45.8536454,13.9211853 C45.7419078,14.1167261 45.5847792,14.3820989 45.3822548,14.7173117 C45.1797304,15.0525245 44.9702256,15.3947157 44.753734,15.7438957 C44.5372424,16.0930757 44.3277375,16.4213 44.1252131,16.7285784 C43.9226887,17.0358568 43.7655601,17.2663121 43.6538225,17.4199513 C43.2068721,18.0484753 42.7005687,18.4744685 42.1348972,18.6979436 C41.5692256,18.9214188 40.9791203,18.9214188 40.3645635,18.6979436 C39.9176131,18.5303373 39.6103393,18.2405222 39.4427329,17.8284898 C39.2751265,17.4164574 39.240209,16.966022 39.3379794,16.47717 C39.379881,16.267662 39.4427325,16.005781 39.5265357,15.691519 C39.6103389,15.377257 39.6976326,15.0699832 39.7884194,14.7696884 C39.8792062,14.4693936 39.9595164,14.2040208 40.0293524,13.973562 C40.0991884,13.7431032 40.1410893,13.6069251 40.1550565,13.5650235 C40.0153845,13.7745315 39.8477807,14.0364125 39.6522399,14.3506745 C39.4566991,14.6649365 39.2611612,14.9757021 39.0656204,15.2829804 C38.8700796,15.5902588 38.6920005,15.8661069 38.5313777,16.1105329 C38.3707549,16.3549589 38.2625107,16.505104 38.2066419,16.5609728 C37.7596916,17.133628 37.3790911,17.5840634 37.0648291,17.9122926 C36.7505671,18.2405218 36.4118676,18.5163698 36.0487204,18.739845 C35.9090484,18.8236482 35.6890683,18.8899914 35.3887735,18.9388766 C35.0884787,18.9877618 34.7707297,18.9877618 34.4355169,18.9388766 C34.1003041,18.8899914 33.7860469,18.7817473 33.4927357,18.6141409 C33.1994245,18.4465345 32.9899196,18.1951287 32.8642148,17.8599159 C32.7245429,17.4828015 32.6826419,17.0637918 32.7385107,16.6028742 C32.7943795,16.1419566 32.8921484,15.6915212 33.0318204,15.2515544 C33.1714924,14.8115876 33.3321128,14.4065449 33.5136864,14.0364141 C33.69526,13.6662833 33.8419134,13.3834518 33.953651,13.187911 C34.5682077,12.1543382 35.3329004,11.2429921 36.247752,10.4538454 C37.1626036,9.66469859 38.2555205,9.13046122 39.5265357,8.85111723 C40.6718461,8.59970764 41.7263538,8.59272415 42.6900906,8.83016654 C42.8297626,8.87206814 42.9659407,8.9279361 43.0986291,8.99777209 C43.2313175,9.06760809 43.3395617,9.14791828 43.4233649,9.23870508 C43.5071681,9.32949188 43.5455773,9.42027731 43.5385937,9.51106411 C43.5316101,9.60185091 43.4512999,9.6821611 43.2976607,9.7519971 C43.2278247,9.77993149 43.0672043,9.82183246 42.8157947,9.87770126 C42.5643851,9.93357006 42.2780618,10.0068968 41.9568163,10.0976836 C41.6355707,10.1884704 41.3038547,10.2932228 40.9616583,10.411944 C40.6194619,10.5306652 40.3156798,10.6668433 40.0503031,10.8204825 C39.3798775,11.2115641 38.7932639,11.668983 38.2904447,12.192753 C37.7876255,12.716523 37.3651241,13.2367934 37.0229277,13.7535797 C36.6807313,14.2703661 36.408375,14.7452438 36.2058506,15.178227 C36.0033262,15.6112102 35.8741316,15.9254674 35.8182628,16.1210082 C35.692558,16.4981226 35.6262148,16.7984129 35.6192312,17.0218881 C35.6122476,17.2453633 35.6366898,17.4094754 35.6925586,17.5142294 C35.7484274,17.6189834 35.8252458,17.6783431 35.9230162,17.6923103 C36.0207866,17.7062775 36.1255391,17.6923105 36.2372767,17.6504089 C36.4328175,17.5805729 36.6702563,17.3955103 36.9496003,17.0952155 C37.2289443,16.7949207 37.5117758,16.4492377 37.7981034,16.0581561 C38.084431,15.6670746 38.3637708,15.2655236 38.6361312,14.8534912 C38.9084916,14.4414588 39.1284717,14.0818088 39.2960781,13.7745304 C39.8128644,12.8526953 40.2563164,12.1718045 40.6264472,11.7318377 C40.9965779,11.2918709 41.2933765,11.0299899 41.5168517,10.9461867 C41.9079333,10.7925475 42.2885337,10.6947786 42.6586645,10.652877 C43.0287953,10.6109754 43.3255938,10.6249424 43.549069,10.6947783 C43.6747738,10.7227127 43.72715,10.8553992 43.7061992,11.0928415 C43.6852484,11.3302839 43.6119218,11.6305742 43.486217,11.9937214 C43.3605122,12.3568686 43.1998918,12.7654031 43.004351,13.219337 C42.8088102,13.673271 42.6097806,14.1376734 42.4072562,14.6125582 C42.2047318,15.087443 42.0057022,15.5553372 41.8101614,16.0162548 C41.6146206,16.4771723 41.4609837,16.896182 41.3492461,17.2732964 C41.2794101,17.4828044 41.2759184,17.6573918 41.3387708,17.7970638 C41.4016232,17.9367358 41.5028838,18.031013 41.6425558,18.0798982 C41.7822278,18.1287834 41.9498317,18.1148164 42.1453725,18.0379968 C42.3409133,17.9611772 42.5434347,17.8040485 42.7529426,17.5666061 Z M46.5869197,15.4924874 C46.4472477,15.324881 46.2936109,15.1607689 46.1260045,15.0001461 C45.9583981,14.8395233 45.7977777,14.6649359 45.6441385,14.4763787 C45.4904993,14.2878215 45.3543211,14.0748249 45.2355999,13.8373825 C45.1168788,13.5999401 45.0365686,13.3206003 44.994667,12.9993547 C44.924831,12.5663716 44.9283227,12.1368866 45.0051423,11.710887 C45.0819619,11.2848874 45.2251236,10.8833365 45.4346315,10.5062221 C45.6441395,10.1291077 45.9304628,9.7904082 46.29361,9.49011341 C46.6567572,9.18981863 47.0897339,8.95587154 47.5925531,8.78826515 C47.7880939,8.71842915 48.0534667,8.66605294 48.3886795,8.63113494 C48.7238923,8.59621694 49.0660835,8.60320044 49.4152635,8.65208563 C49.7644435,8.70097083 50.075209,8.80921501 50.3475694,8.9768214 C50.6199298,9.14442779 50.7910254,9.40281711 50.8608614,9.7519971 C50.8608614,9.7659643 50.8538779,9.80437352 50.8399107,9.86722592 C50.8259435,9.93007831 50.7491251,9.96150404 50.6094531,9.96150404 C50.5116827,9.96150404 50.3755045,9.94753705 50.2009145,9.91960265 C50.0263245,9.89166825 49.8342784,9.88468476 49.6247704,9.89865196 C49.4152625,9.91261916 49.1987741,9.96150362 48.9752989,10.0453068 C48.7518237,10.12911 48.5353354,10.2757634 48.3258274,10.4852714 C48.1163194,10.6947794 47.9382403,10.9811027 47.7915847,11.3442499 C47.6449291,11.7073971 47.6065199,12.1054563 47.6763559,12.5384395 C47.7461919,12.9295211 47.8718948,13.3066298 48.0534684,13.669777 C48.235042,14.0329242 48.4445468,14.3611484 48.6819892,14.6544596 C49.087038,14.4309844 49.404787,14.2389383 49.6352458,14.0783155 C49.8657046,13.9176927 50.0577507,13.7710393 50.2113899,13.6383509 C50.3650291,13.5056625 50.5116825,13.3729761 50.6513545,13.2402877 C50.7910265,13.1075993 50.9725973,12.9504707 51.1960725,12.7688971 C51.2240069,12.7269955 51.2938419,12.6850945 51.4055795,12.6431929 C51.5173171,12.6012913 51.6220695,12.6012913 51.7198399,12.6431929 C51.7896759,12.6711273 51.8176099,12.7269953 51.8036427,12.8107985 C51.7896755,12.8946017 51.740791,12.9853871 51.6569878,13.0831575 C51.4055782,13.3485343 51.1297302,13.5929566 50.8294354,13.8164318 C50.5291406,14.039907 50.2428173,14.2354449 49.9704569,14.4030513 C49.6980965,14.5706577 49.4641494,14.7068358 49.2686086,14.8115898 C49.0730678,14.9163438 48.9543484,14.9757035 48.9124468,14.9896707 C49.0521188,15.1572771 49.1778217,15.366782 49.2895593,15.6181916 C49.4012969,15.8696011 49.4781154,16.1559244 49.520017,16.47717 C49.5619186,16.7984156 49.5444598,17.1440986 49.4676402,17.5142294 C49.3908206,17.8843602 49.233692,18.2370267 48.9962496,18.5722395 C48.8426104,18.7817475 48.6505643,18.9947441 48.4201055,19.2112357 C48.1896467,19.4277273 47.9277657,19.6127899 47.6344545,19.7664291 C47.3411433,19.9200683 47.0164108,20.0283124 46.6602472,20.0911648 C46.3040836,20.1540172 45.9234831,20.1505255 45.5184343,20.0806895 C45.1413199,20.0108535 44.8480131,19.8676918 44.6385052,19.6512002 C44.4289972,19.4347087 44.2893273,19.1867946 44.2194913,18.9074506 C44.1496553,18.6281066 44.1461635,18.3417833 44.2090159,18.0484721 C44.2718683,17.7551609 44.387096,17.4897881 44.5547024,17.2523457 C44.7083416,17.0568049 44.9283217,16.7984156 45.2146493,16.47717 C45.5009768,16.1559244 45.9583958,15.8277002 46.5869197,15.4924874 Z M46.9430815,15.8486492 C46.7894424,15.9603868 46.6497725,16.0616475 46.5240677,16.1524343 C46.3983629,16.2432211 46.230759,16.4073332 46.021251,16.6447756 C45.9095134,16.7844476 45.790794,16.9764937 45.6650892,17.2209197 C45.5393844,17.4653457 45.4660577,17.7167515 45.4451069,17.9751447 C45.4241561,18.2335379 45.4835158,18.4709767 45.6231878,18.6874683 C45.7628598,18.9039599 46.0352161,19.0471215 46.4402649,19.1169575 C46.6637401,19.1588591 46.8802284,19.1379087 47.0897364,19.0541055 C47.2992444,18.9703023 47.4808153,18.8480911 47.6344545,18.6874683 C47.7880937,18.5268455 47.8963378,18.3313076 47.9591902,18.1008489 C48.0220426,17.8703901 48.0185509,17.622476 47.9487149,17.3570992 C47.8928461,17.1615584 47.7776184,16.9311031 47.6030284,16.6657263 C47.4284384,16.4003495 47.2084583,16.1279932 46.9430815,15.8486492 Z M59.7858573,17.5666061 C60.0372669,17.2872622 60.3026397,16.9450709 60.5819837,16.5400221 C60.8613277,16.1349733 61.1267005,15.7299306 61.3781101,15.3248818 C61.6295196,14.919833 61.8564832,14.5497078 62.0590076,14.214495 C62.261532,13.8792822 62.4116772,13.6418434 62.5094476,13.5021714 C62.5513492,13.4323354 62.6072171,13.3939262 62.6770531,13.3869426 C62.7468891,13.379959 62.8062488,13.3974177 62.855134,13.4393193 C62.9040192,13.4812209 62.9354449,13.5475641 62.9494121,13.6383509 C62.9633793,13.7291377 62.9424289,13.8234149 62.8865601,13.9211853 C62.7748225,14.1167261 62.6176938,14.3820989 62.4151694,14.7173117 C62.212645,15.0525245 62.0031402,15.3947157 61.7866486,15.7438957 C61.570157,16.0930757 61.3606522,16.4213 61.1581278,16.7285784 C60.9556034,17.0358568 60.7984747,17.2663121 60.6867371,17.4199513 C60.2397868,18.0484753 59.7334834,18.4744685 59.1678118,18.6979436 C58.6021402,18.9214188 58.0120349,18.9214188 57.3974781,18.6979436 C56.9505277,18.5303373 56.6432539,18.2405222 56.4756475,17.8284898 C56.3080412,17.4164574 56.2731237,16.966022 56.3708941,16.47717 C56.4127957,16.267662 56.4756471,16.005781 56.5594503,15.691519 C56.6432535,15.377257 56.7305472,15.0699832 56.821334,14.7696884 C56.9121208,14.4693936 56.992431,14.2040208 57.062267,13.973562 C57.132103,13.7431032 57.174004,13.6069251 57.1879712,13.5650235 C57.0482992,13.7745315 56.8806953,14.0364125 56.6851545,14.3506745 C56.4896137,14.6649365 56.2940758,14.9757021 56.098535,15.2829804 C55.9029943,15.5902588 55.7249151,15.8661069 55.5642923,16.1105329 C55.4036695,16.3549589 55.2954254,16.505104 55.2395566,16.5609728 C54.7926062,17.133628 54.4120057,17.5840634 54.0977437,17.9122926 C53.7834817,18.2405218 53.4447822,18.5163698 53.081635,18.739845 C52.941963,18.8236482 52.7219829,18.8899914 52.4216882,18.9388766 C52.1213934,18.9877618 51.8036443,18.9877618 51.4684316,18.9388766 C51.1332188,18.8899914 50.8189615,18.7817473 50.5256503,18.6141409 C50.2323391,18.4465345 50.0228343,18.1951287 49.8971295,17.8599159 C49.7574575,17.4828015 49.7155565,17.0637918 49.7714253,16.6028742 C49.8272941,16.1419566 49.925063,15.6915212 50.064735,15.2515544 C50.204407,14.8115876 50.3650274,14.4065449 50.546601,14.0364141 C50.7281746,13.6662833 50.874828,13.3834518 50.9865656,13.187911 C51.6011224,12.1543382 52.3658151,11.2429921 53.2806666,10.4538454 C54.1955182,9.66469859 55.2884352,9.13046122 56.5594503,8.85111723 C57.7047607,8.59970764 58.7592684,8.59272415 59.7230052,8.83016654 C59.8626772,8.87206814 59.9988553,8.9279361 60.1315437,8.99777209 C60.2642321,9.06760809 60.3724763,9.14791828 60.4562795,9.23870508 C60.5400827,9.32949188 60.5784919,9.42027731 60.5715083,9.51106411 C60.5645247,9.60185091 60.4842145,9.6821611 60.3305753,9.7519971 C60.2607393,9.77993149 60.100119,9.82183246 59.8487094,9.87770126 C59.5972998,9.93357006 59.3109765,10.0068968 58.9897309,10.0976836 C58.6684853,10.1884704 58.3367693,10.2932228 57.9945729,10.411944 C57.6523765,10.5306652 57.3485945,10.6668433 57.0832177,10.8204825 C56.4127921,11.2115641 55.8261785,11.668983 55.3233593,12.192753 C54.8205402,12.716523 54.3980387,13.2367934 54.0558423,13.7535797 C53.7136459,14.2703661 53.4412896,14.7452438 53.2387652,15.178227 C53.0362409,15.6112102 52.9070462,15.9254674 52.8511774,16.1210082 C52.7254726,16.4981226 52.6591294,16.7984129 52.6521458,17.0218881 C52.6451622,17.2453633 52.6696044,17.4094754 52.7254732,17.5142294 C52.781342,17.6189834 52.8581605,17.6783431 52.9559309,17.6923103 C53.0537013,17.7062775 53.1584537,17.6923105 53.2701913,17.6504089 C53.4657321,17.5805729 53.7031709,17.3955103 53.9825149,17.0952155 C54.2618589,16.7949207 54.5446904,16.4492377 54.831018,16.0581561 C55.1173456,15.6670746 55.3966854,15.2655236 55.6690458,14.8534912 C55.9414062,14.4414588 56.1613863,14.0818088 56.3289927,13.7745304 C56.8457791,12.8526953 57.289231,12.1718045 57.6593618,11.7318377 C58.0294926,11.2918709 58.3262911,11.0299899 58.5497663,10.9461867 C58.9408479,10.7925475 59.3214484,10.6947786 59.6915792,10.652877 C60.0617099,10.6109754 60.3585085,10.6249424 60.5819837,10.6947783 C60.7076885,10.7227127 60.7600647,10.8553992 60.7391139,11.0928415 C60.7181631,11.3302839 60.6448364,11.6305742 60.5191316,11.9937214 C60.3934268,12.3568686 60.2328064,12.7654031 60.0372656,13.219337 C59.8417248,13.673271 59.6426952,14.1376734 59.4401708,14.6125582 C59.2376464,15.087443 59.0386168,15.5553372 58.843076,16.0162548 C58.6475352,16.4771723 58.4938983,16.896182 58.3821607,17.2732964 C58.3123247,17.4828044 58.308833,17.6573918 58.3716854,17.7970638 C58.4345378,17.9367358 58.5357985,18.031013 58.6754705,18.0798982 C58.8151425,18.1287834 58.9827463,18.1148164 59.1782871,18.0379968 C59.3738279,17.9611772 59.5763493,17.8040485 59.7858573,17.5666061 Z M63.3265246,8.24354709 C63.6477702,8.0759407 63.955044,7.96420478 64.2483552,7.90833598 C64.4997648,7.86643438 64.7511706,7.88738487 65.0025802,7.97118806 C65.2539898,8.05499126 65.4495277,8.2784631 65.5891997,8.64161029 C65.7288716,9.00475747 65.7707726,9.42027543 65.7149038,9.88817661 C65.659035,10.3560778 65.5752331,10.8065132 65.4634955,11.2394964 C65.3238235,11.7423156 65.1422526,12.2521107 64.9187774,12.7688971 C65.3517606,12.0426027 65.8196548,11.3652037 66.322474,10.7366797 C66.531982,10.4713029 66.7624373,10.2059301 67.0138469,9.94055335 C67.2652565,9.67517656 67.5271375,9.42726248 67.7994979,9.19680369 C68.0718583,8.9663449 68.3511981,8.7603318 68.6375257,8.5787582 C68.9238533,8.39718461 69.2206518,8.25751471 69.5279302,8.15974431 C70.1285198,7.97817072 70.6383149,7.92579451 71.0573309,8.00261411 C71.4763469,8.0794337 71.8115547,8.2191036 72.0629643,8.421628 C72.3143738,8.62415239 72.492453,8.86159122 72.597207,9.13395161 C72.701961,9.406312 72.7403702,9.64724258 72.7124358,9.85675057 C72.6845014,10.1081602 72.6006994,10.4328927 72.4610274,10.8309579 C72.3213555,11.229023 72.1502598,11.6619997 71.9477354,12.1299009 C71.745211,12.5978021 71.5322144,13.0761715 71.3087393,13.5650235 C71.0852641,14.0538755 70.8722675,14.5252614 70.6697431,14.9791954 C70.4672187,15.4331294 70.2891396,15.8416638 70.1355004,16.204811 C69.9818612,16.5679582 69.8771087,16.847298 69.8212399,17.0428388 C69.7374367,17.3501172 69.7269615,17.5700973 69.7898139,17.7027857 C69.8526663,17.8354741 69.953927,17.905309 70.093599,17.9122926 C70.233271,17.9192762 70.3938913,17.8773752 70.5754649,17.7865884 C70.7570385,17.6958016 70.9246424,17.5875575 71.0782816,17.4618527 C71.2179536,17.3501151 71.392541,17.1650525 71.602049,16.9066593 C71.811557,16.6482661 72.0350288,16.3619428 72.2724712,16.0476808 C72.5099136,15.7334188 72.7508442,15.4086863 72.9952702,15.0734735 C73.2396961,14.7382607 73.4596762,14.4274952 73.655217,14.1411676 C73.8507578,13.85484 74.01487,13.6174012 74.1475584,13.428844 C74.2802468,13.2402868 74.3535734,13.1390261 74.3675406,13.1250589 C74.395475,13.0831573 74.451343,13.0272894 74.5351462,12.9574534 C74.6189494,12.8876174 74.7097348,12.8876174 74.8075052,12.9574534 C74.8913084,13.0133222 74.9052754,13.1110911 74.8494066,13.2507631 L74.7656038,13.46027 C74.2348503,14.2703676 73.7390221,15.0106181 73.2781045,15.6810436 C73.0825637,15.9743548 72.8800424,16.2641699 72.6705344,16.5504975 C72.4610264,16.8368251 72.2619968,17.1021979 72.0734396,17.3466239 C71.8848824,17.5910498 71.7137868,17.8040464 71.5601476,17.98562 C71.4065084,18.1671936 71.2808055,18.29988 71.1830351,18.3836832 C70.9036911,18.6071584 70.5719751,18.7712706 70.1878771,18.8760245 C69.8037791,18.9807785 69.4231786,19.015696 69.0460642,18.980778 C68.6689499,18.94586 68.3232669,18.8411076 68.0090049,18.6665176 C67.6947429,18.4919276 67.4538123,18.23703 67.2862059,17.9018173 C67.1744683,17.6783421 67.1430426,17.3640848 67.1919278,16.959036 C67.240813,16.5539872 67.3315984,16.1035518 67.4642868,15.6077162 C67.5969752,15.1118806 67.7575956,14.6020855 67.9461528,14.0783155 C68.13471,13.5545455 68.3232643,13.0691926 68.5118215,12.6222422 C68.7003787,12.1752919 68.8679826,11.7946914 69.0146382,11.4804294 C69.1612938,11.1661674 69.2625545,10.9671378 69.3184233,10.8833346 C69.4301609,10.6877938 69.4965041,10.4817807 69.5174549,10.2652891 C69.5384057,10.0487975 69.4965047,9.87770189 69.3917507,9.7519971 C69.2869967,9.6262923 69.1159011,9.58089958 68.8784587,9.61581758 C68.6410163,9.65073558 68.326759,9.81484771 67.9356774,10.1081589 C67.6703006,10.3036997 67.3839774,10.5795477 67.076699,10.9357113 C66.7694206,11.2918749 66.4551633,11.6864424 66.1339177,12.1194256 C65.8126721,12.5524088 65.4984148,13.0098277 65.1911365,13.4916961 C64.8838581,13.9735644 64.5975348,14.4344751 64.332158,14.8744419 C64.0667812,15.3144087 63.8363259,15.7194514 63.6407851,16.0895822 C63.4452443,16.459713 63.2985909,16.749528 63.2008205,16.959036 C63.0471813,17.2802816 62.9459206,17.5631131 62.8970354,17.8075391 C62.8481502,18.0519651 62.823708,18.2509947 62.823708,18.4046339 C62.823708,18.5862075 62.8446585,18.7468279 62.8865601,18.8864999 C62.4396097,18.7887295 62.0764679,18.6455679 61.7971239,18.4570107 C61.51778,18.2684535 61.2943081,18.0589486 61.1267017,17.8284898 C60.9590953,17.598031 60.8403759,17.3675757 60.7705399,17.1371169 C60.7007039,16.9066581 60.658803,16.700645 60.6448358,16.5190714 C60.6308686,16.4073338 60.6692778,16.2152877 60.7600646,15.9429273 C60.8508514,15.6705669 60.9695708,15.3563097 61.1162264,15.0001461 C61.262882,14.6439825 61.4269941,14.2598903 61.6085677,13.8478579 C61.7901413,13.4358255 61.9647287,13.0307828 62.1323351,12.6327176 C62.2999415,12.2346524 62.4500866,11.8575437 62.582775,11.5013801 C62.7154634,11.1452165 62.8167241,10.8414345 62.8865601,10.5900249 C63.0681337,9.8497633 63.1938366,9.27013322 63.2636726,8.85111723 C63.3055742,8.61367484 63.3265246,8.41115349 63.3265246,8.24354709 Z" id="path-1"></path>
    </defs>
    <g id="Susasan_eprofile_UI_homepage" stroke="none" stroke-width="1" fill="none" fill-rule="evenodd" transform="translate(-49.000000, -47.000000)">
        <g id="hero">
            <g id="Logo/Susasan">
                <g transform="translate(49.000000, 47.000000)">
                    <mask id="mask-2" fill="white">
                        <use xlink:href="#path-1"></use>
                    </mask>
                    <g id="Mask" opacity="0.400000006"></g>
                    <g id="Colors/Lighter" mask="url(#mask-2)" fill="#F0F8FF" fill-rule="evenodd">
                        <rect id="color" x="0" y="0" width="75" height="21"></rect>
                    </g>
                </g>
            </g>
        </g>
    </g>
</svg>